<svg xmlns="http://www.w3.org/2000/svg" xmlns:xlink="http://www.w3.org/1999/xlink" version="1.1" id="Vrstva_1" x="0px" y="0px" width="16" height="16" viewBox="0 0 350 170" enable-background="new 0 0 350 170" xml:space="preserve">
<g>
	<path fill-rule="evenodd" clip-rule="evenodd" fill="white" d="M235.3,41.7c3.2,0,5.4,1.9,5.4,4.7c0,8.6-14.9,16.3-28.4,21.4   C215.2,55.5,222.9,41.7,235.3,41.7L235.3,41.7z M170.6,40.8c4.1,0,5.6,4.8,5.6,10.1c0,13.3-10.6,31.9-27.4,44.6   C150,70.8,158.2,40.8,170.6,40.8L170.6,40.8z M308.8,105c4.3,21-6,26-12.7,26c-6.7,0-11-6.7-11-14.5c0-18.5,4.3-25.3,4.3-32.5   c0-8.4-11.8-7.7-17.8-5.4c1.1,12.5-0.2,23.1-9.7,23.1c-7.7,0-9.5-5.5-14-10.2c-3.3-3.5-8.8-6.5-15.6-6.5c-4.3,0-8.4,0.9-12.8,3.3   c-6.9,4.7-4.3,14.8,0.6,18.3c2.6-2.6,5.8-5.2,9.9-5.2c5.2,0,9.2,6.3,9.2,11.9c0,8.8-6.5,15.5-13.8,15.5c-12.9,0-16.5-9.9-16.5-26.7   c0-4.1,0.4-11.7,0.9-17.3c8-3,13.5-4.7,18-6.5c17-6.2,30.1-17.1,30.1-34.3c0-11.4-10.1-19.3-21.3-19.3c-30.7,0-44.7,41.1-44.7,78.4   c0,15.5-13.9,25.8-24.2,25.8c-7.3,0-13.8-4.1-16.2-13.1c-0.4-1.5-0.6-3-0.7-4.3c24.3-16.1,41.4-37.6,41.4-64   c0-12.9-5.6-22.8-20.3-22.8c-29.6,0-36.6,37.2-38.5,78.6c-0.5,10.7-2.6,14-4.7,18.3c-1.9,3.9-6.7,7.3-10.9,7.5   c-9,0-14.8-12.9-14.8-32c0-15.5,7.5-24.7,12.7-27.7c-2.1-3-18.5-15.3-27.3,9.5c-1.9,5.1-3.6,14.2-3.6,20.8c0,7.7,1.6,15.5,4,21.4   c-4.6,4.4-10.4,6.6-18.8,6.6c-14.4,0-27.8-17.9-27.8-39.1c0-28.3,21.5-45.9,41.6-45.9c18,0,26.6,10.9,31.2,18.3   c6.7,0,16.5-5.3,12.8-13.4c-2.2-4.9-16.9-23.1-43.6-23.1c-32.9,0-59.9,25-59.9,65.6c0,30.7,21.3,55.6,45.1,55.6   c9,0,19.3-1.3,28.3-10.3c4.3,6.2,12.2,10.3,20.1,10.3c7.5,0,15.4-3.8,20.8-12.3c7.1,9.7,17.4,12.3,26.9,12.3   c11.4,0,24.3-6.4,31.4-15.2c7.5,10.1,17.4,15.2,28.2,15.2c16.3,0,28.4-11.4,31.2-27.9c3.9,0,7.7-1.3,11.4-3.6   c-1.1,19.5,11.8,31.4,28.2,31.4c17.4,0,28.2-14.4,28.2-35.9C324.4,101,314.4,102.3,308.8,105z"/>
	<path fill-rule="evenodd" clip-rule="evenodd" fill="white" d="M316.7,82.3c5.3-1.4,8.8-5.4,7.3-10.9c-1.5-5.3-6.3-7.3-11.5-5.9   c-5.1,1.2-8.3,6.6-7.1,10.5C306.7,80.7,311.5,83.5,316.7,82.3z"/>
</g>
</svg>
